<svg width="249" height="79" viewBox="0 0 249 79" fill="none" xmlns="http://www.w3.org/2000/svg">
<rect width="5.89556" height="17.8376" transform="matrix(-0.0016061 -0.999999 0.999997 -0.00223787 4.2905 76.6822)" fill="#6BA6FF" style="mix-blend-mode:darken"/>
<rect width="4.99452" height="76.6423" fill="#6BA6FF"/>
<rect width="5.89556" height="17.8376" transform="matrix(-0.0016061 -0.999999 0.999997 -0.00223787 4.2905 5.93549)" fill="#6BA6FF" style="mix-blend-mode:darken"/>
<rect width="4.99452" height="76.6423" fill="#6BA6FF"/>
<rect width="5.89556" height="17.8376" transform="matrix(-0.0016061 -0.999999 0.999997 -0.00223787 4.2905 5.93549)" fill="#6BA6FF" style="mix-blend-mode:darken"/>
<rect width="5.89556" height="17.8376" transform="matrix(0.0016061 0.999999 -0.999997 0.00223787 243.838 2)" fill="#6BA6FF" style="mix-blend-mode:darken"/>
<rect x="248.128" y="78.6822" width="4.99452" height="76.6423" transform="rotate(-180 248.128 78.6822)" fill="#6BA6FF"/>
<rect width="5.89556" height="17.8376" transform="matrix(0.0016061 0.999999 -0.999997 0.00223787 243.838 72.7467)" fill="#6BA6FF" style="mix-blend-mode:darken"/>
<rect x="248.128" y="78.6822" width="4.99452" height="76.6423" transform="rotate(-180 248.128 78.6822)" fill="#6BA6FF"/>
<rect width="5.89556" height="17.8376" transform="matrix(0.0016061 0.999999 -0.999997 0.00223787 243.838 72.7467)" fill="#6BA6FF" style="mix-blend-mode:darken"/>
<path d="M15.0227 16.7273H21.0909L27.5 32.3636H27.7727L34.1818 16.7273H40.25V40H35.4773V24.8523H35.2841L29.2614 39.8864H26.0114L19.9886 24.7955H19.7955V40H15.0227V16.7273ZM48.3153 40H43.0426L51.0767 16.7273H57.4176L65.4403 40H60.1676L54.3381 22.0455H54.1562L48.3153 40ZM47.9858 30.8523H60.4403V34.6932H47.9858V30.8523ZM64.5114 20.7841V16.7273H83.625V20.7841H76.5V40H71.6364V20.7841H64.5114ZM86.7727 40V16.7273H102.455V20.7841H91.6932V26.3295H101.648V30.3864H91.6932V35.9432H102.5V40H86.7727ZM106.366 40V16.7273H115.548C117.306 16.7273 118.806 17.0417 120.048 17.6705C121.298 18.2917 122.249 19.1742 122.901 20.3182C123.56 21.4545 123.889 22.7917 123.889 24.3295C123.889 25.875 123.556 27.2045 122.889 28.3182C122.223 29.4242 121.257 30.2727 119.991 30.8636C118.734 31.4545 117.211 31.75 115.423 31.75H109.276V27.7955H114.628C115.567 27.7955 116.348 27.6667 116.969 27.4091C117.59 27.1515 118.052 26.7652 118.355 26.25C118.666 25.7348 118.821 25.0947 118.821 24.3295C118.821 23.5568 118.666 22.9053 118.355 22.375C118.052 21.8447 117.586 21.4432 116.957 21.1705C116.336 20.8902 115.552 20.75 114.605 20.75H111.287V40H106.366ZM118.935 29.4091L124.719 40H119.287L113.628 29.4091H118.935ZM132.287 16.7273V40H127.366V16.7273H132.287ZM140.347 40H135.074L143.108 16.7273H149.449L157.472 40H152.199L146.369 22.0455H146.188L140.347 40ZM140.017 30.8523H152.472V34.6932H140.017V30.8523ZM160.273 40V16.7273H165.193V35.9432H175.17V40H160.273Z" fill="#808898"/>
<path d="M192 12H213.659V71L192 41.5V12Z" fill="#6BA6FF"/>
<path d="M233 12.0015L215.982 12L215.979 62.8546L232.998 37.4287L233 12.0015Z" fill="#6BA6FF"/>
<path d="M109.58 71V52.8182H116.754C118.133 52.8182 119.307 53.0816 120.278 53.6083C121.249 54.1291 121.989 54.8542 122.498 55.7834C123.012 56.7067 123.27 57.772 123.27 58.9794C123.27 60.1868 123.009 61.2521 122.489 62.1754C121.968 63.0987 121.213 63.8178 120.225 64.3327C119.242 64.8477 118.053 65.1051 116.656 65.1051H112.084V62.0245H116.034C116.774 62.0245 117.384 61.8973 117.863 61.6428C118.349 61.3823 118.71 61.0243 118.946 60.5685C119.189 60.1069 119.31 59.5772 119.31 58.9794C119.31 58.3757 119.189 57.849 118.946 57.3991C118.71 56.9434 118.349 56.5913 117.863 56.3427C117.378 56.0882 116.762 55.9609 116.017 55.9609H113.424V71H109.58ZM142.475 61.9091C142.475 63.8918 142.099 65.5786 141.347 66.9695C140.602 68.3603 139.584 69.4227 138.293 70.1566C137.009 70.8846 135.565 71.2486 133.961 71.2486C132.345 71.2486 130.895 70.8816 129.611 70.1477C128.327 69.4138 127.312 68.3514 126.566 66.9606C125.82 65.5697 125.447 63.8859 125.447 61.9091C125.447 59.9264 125.82 58.2396 126.566 56.8487C127.312 55.4579 128.327 54.3984 129.611 53.6705C130.895 52.9366 132.345 52.5696 133.961 52.5696C135.565 52.5696 137.009 52.9366 138.293 53.6705C139.584 54.3984 140.602 55.4579 141.347 56.8487C142.099 58.2396 142.475 59.9264 142.475 61.9091ZM138.578 61.9091C138.578 60.6248 138.385 59.5417 138 58.6598C137.622 57.7779 137.086 57.1091 136.394 56.6534C135.701 56.1977 134.89 55.9698 133.961 55.9698C133.032 55.9698 132.221 56.1977 131.528 56.6534C130.836 57.1091 130.297 57.7779 129.913 58.6598C129.534 59.5417 129.345 60.6248 129.345 61.9091C129.345 63.1934 129.534 64.2765 129.913 65.1584C130.297 66.0402 130.836 66.709 131.528 67.1648C132.221 67.6205 133.032 67.8484 133.961 67.8484C134.89 67.8484 135.701 67.6205 136.394 67.1648C137.086 66.709 137.622 66.0402 138 65.1584C138.385 64.2765 138.578 63.1934 138.578 61.9091ZM155.186 58.0472C155.115 57.3311 154.81 56.7747 154.271 56.3782C153.733 55.9817 153.002 55.7834 152.078 55.7834C151.451 55.7834 150.921 55.8722 150.489 56.0497C150.057 56.2214 149.726 56.4611 149.495 56.7688C149.27 57.0766 149.158 57.4258 149.158 57.8164C149.146 58.1419 149.214 58.426 149.362 58.6687C149.516 58.9113 149.726 59.1214 149.992 59.299C150.259 59.4706 150.566 59.6216 150.915 59.7518C151.265 59.8761 151.638 59.9826 152.034 60.0714L153.668 60.462C154.461 60.6396 155.189 60.8763 155.852 61.1722C156.514 61.4682 157.089 61.8321 157.574 62.2642C158.059 62.6963 158.435 63.2053 158.701 63.7912C158.974 64.3771 159.113 65.0489 159.119 65.8065C159.113 66.9192 158.829 67.8839 158.266 68.7006C157.71 69.5115 156.905 70.1418 155.852 70.5916C154.804 71.0355 153.54 71.2575 152.061 71.2575C150.593 71.2575 149.315 71.0326 148.225 70.5827C147.142 70.1329 146.296 69.4671 145.686 68.5852C145.083 67.6974 144.766 66.5996 144.737 65.2915H148.456C148.498 65.9012 148.672 66.4102 148.98 66.8185C149.294 67.221 149.711 67.5258 150.232 67.733C150.759 67.9342 151.353 68.0348 152.016 68.0348C152.667 68.0348 153.233 67.9401 153.712 67.7507C154.197 67.5613 154.573 67.2979 154.839 66.9606C155.106 66.6232 155.239 66.2356 155.239 65.7976C155.239 65.3892 155.118 65.0459 154.875 64.7678C154.638 64.4896 154.289 64.2528 153.827 64.0575C153.372 63.8622 152.812 63.6847 152.15 63.5249L150.17 63.0277C148.637 62.6548 147.426 62.0719 146.539 61.2788C145.651 60.4857 145.21 59.4174 145.216 58.0739C145.21 56.973 145.503 56.0112 146.095 55.1886C146.693 54.3659 147.512 53.7237 148.554 53.2621C149.596 52.8004 150.779 52.5696 152.105 52.5696C153.455 52.5696 154.632 52.8004 155.638 53.2621C156.651 53.7237 157.438 54.3659 158 55.1886C158.562 56.0112 158.852 56.9641 158.87 58.0472H155.186ZM161.012 55.9876V52.8182H175.944V55.9876H170.378V71H166.578V55.9876H161.012Z" fill="#808898"/>
</svg>
